<svg xmlns="http://www.w3.org/2000/svg" width="48.667" height="53" viewBox="0 0 48.667 53">
  <path id="address-book" d="M37.833,0H16.167A10.833,10.833,0,0,0,6.252,6.5H3.167a2.167,2.167,0,0,0,0,4.333H5.333v4.333H3.167a2.167,2.167,0,1,0,0,4.333H5.333v4.333H3.167a2.167,2.167,0,0,0,0,4.333H5.333V32.5H3.167a2.167,2.167,0,0,0,0,4.333H5.333v4.333H3.167a2.167,2.167,0,1,0,0,4.333H6.252A10.833,10.833,0,0,0,16.167,52H37.833A10.846,10.846,0,0,0,48.667,41.167V10.833A10.846,10.846,0,0,0,37.833,0Zm6.5,41.167a6.5,6.5,0,0,1-6.5,6.5H16.167a6.5,6.5,0,0,1-6.5-6.5V10.833a6.5,6.5,0,0,1,6.5-6.5H37.833a6.5,6.5,0,0,1,6.5,6.5ZM27,26a6.5,6.5,0,1,0-6.5-6.5A6.5,6.5,0,0,0,27,26ZM37.833,39A2.167,2.167,0,1,1,33.5,39a6.5,6.5,0,1,0-13,0,2.167,2.167,0,1,1-4.333,0C16.624,24.683,37.381,24.687,37.833,39Z" transform="translate(-0.5 0.5)" fill="#13718d" stroke="#13718d" stroke-width="1"/>
</svg>
