<svg xmlns="http://www.w3.org/2000/svg" width="52.893" height="52.88" viewBox="0 0 52.893 52.88">
  <g id="gem" transform="translate(0.502 0.508)">
    <path id="Path_46020" data-name="Path 46020" d="M50.033,13.5l-1.7-2.315A12.722,12.722,0,0,0,38.112,6H13.795A12.737,12.737,0,0,0,3.717,10.991L1.942,13.313A9.55,9.55,0,0,0,3.127,26.147L20.4,42.807A8.258,8.258,0,0,0,25.911,44.9a8.431,8.431,0,0,0,5.62-2.162l17.155-16.5A9.49,9.49,0,0,0,50.033,13.5Zm-5.188.231,1.7,2.322a5.161,5.161,0,0,1,.45.752H36.64a14.3,14.3,0,0,0-.8-3.026l-1.383-3.459h3.66A8.383,8.383,0,0,1,44.845,13.735ZM25.915,36.454,19.93,22.9a10.035,10.035,0,0,1-.489-1.768H32.308a9.413,9.413,0,0,1-.38,1.4ZM19.668,16.808a10.056,10.056,0,0,1,.339-1.144l2.127-5.342H29.8l2.026,5.065a10.375,10.375,0,0,1,.432,1.42Zm-12.514-3.2a8.4,8.4,0,0,1,6.641-3.288H17.47l-1.476,3.738a14.2,14.2,0,0,0-.793,2.748H4.85a5.02,5.02,0,0,1,.534-.865ZM6.073,22.978a5.132,5.132,0,0,1-1.3-1.846H15.092a14.859,14.859,0,0,0,.837,3.407L22.04,38.373ZM29.765,38.456l6.169-14.3a14.209,14.209,0,0,0,.744-3.026H47.122a5.4,5.4,0,0,1-1.368,1.946Z" transform="translate(0 6.971)" fill="#13718d" stroke="#13718d" stroke-width="1"/>
    <path id="Path_46021" data-name="Path 46021" d="M13.162,8.647a2.162,2.162,0,0,0,2.162-2.162V2.162a2.162,2.162,0,1,0-4.323,0V6.485A2.162,2.162,0,0,0,13.162,8.647Z" transform="translate(12.775 0.001)" fill="#13718d" stroke="#13718d" stroke-width="1"/>
    <path id="Path_46022" data-name="Path 46022" d="M17.194,8.431a2.162,2.162,0,0,0,2.912-.979l2.162-4.323A2.163,2.163,0,0,0,18.4,1.2L16.236,5.52a2.162,2.162,0,0,0,.958,2.912Z" transform="translate(18.586 0)" fill="#13718d" stroke="#13718d" stroke-width="1"/>
    <path id="Path_46023" data-name="Path 46023" d="M7.384,7.452a2.167,2.167,0,0,0,3.88-1.933L9.1,1.2A2.163,2.163,0,0,0,5.233,3.129Z" transform="translate(5.81 0)" fill="#13718d" stroke="#13718d" stroke-width="1"/>
  </g>
</svg>
