<svg xmlns="http://www.w3.org/2000/svg" width="63.054" height="52.749" viewBox="0 0 63.054 52.749">
  <path id="headset" d="M54.313,28.971V25.287a23.287,23.287,0,1,0-46.574,0v3.684a12.937,12.937,0,0,0,5.175,24.777,5.175,5.175,0,0,0,5.175-5.175V33.049a5.175,5.175,0,0,0-5.175-5.175V25.287a18.112,18.112,0,1,1,36.224,0v2.587a5.175,5.175,0,0,0-5.175,5.175V48.574H36.2a2.587,2.587,0,1,0,0,5.175H49.138a12.937,12.937,0,0,0,5.175-24.777Zm-41.4,19.6h0a7.762,7.762,0,1,1,0-15.525Zm36.224,0V33.049a7.762,7.762,0,1,1,0,15.525Z" transform="translate(0.501 -1.5)" fill="#13718d" stroke="#13718d" stroke-width="1"/>
</svg>
