<svg xmlns="http://www.w3.org/2000/svg" width="51.874" height="51.874" viewBox="0 0 51.874 51.874">
  <path id="flag" d="M42.147,8.646H33.391A9.7,9.7,0,0,0,23.775,0H9.726A9.737,9.737,0,0,0,0,9.726V48.631a3.242,3.242,0,0,0,6.484,0V30.26H20.644a9.7,9.7,0,0,0,9.616,8.646H42.147a9.737,9.737,0,0,0,9.726-9.726V18.372A9.737,9.737,0,0,0,42.147,8.646ZM6.484,9.726A3.242,3.242,0,0,1,9.726,6.484H23.775a3.242,3.242,0,0,1,3.242,3.242V20.533a3.242,3.242,0,0,1-3.242,3.242H6.484ZM45.389,29.179a3.242,3.242,0,0,1-3.242,3.242H30.26a3.242,3.242,0,0,1-3.195-2.773A9.711,9.711,0,0,0,33.5,20.533v-5.4h8.646a3.242,3.242,0,0,1,3.242,3.242Z" fill="#13718d"/>
</svg>
