<svg id="apps-add" xmlns="http://www.w3.org/2000/svg" width="51.874" height="51.874" viewBox="0 0 51.874 51.874">
  <path id="Path_46024" data-name="Path 46024" d="M15.13,0H8.646A8.646,8.646,0,0,0,0,8.646V15.13a8.646,8.646,0,0,0,8.646,8.646H15.13a8.646,8.646,0,0,0,8.646-8.646V8.646A8.646,8.646,0,0,0,15.13,0Zm4.323,15.13a4.323,4.323,0,0,1-4.323,4.323H8.646A4.323,4.323,0,0,1,4.323,15.13V8.646A4.323,4.323,0,0,1,8.646,4.323H15.13a4.323,4.323,0,0,1,4.323,4.323Z" fill="#13718d"/>
  <path id="Path_46025" data-name="Path 46025" d="M15.13,13H8.646A8.646,8.646,0,0,0,0,21.646V28.13a8.646,8.646,0,0,0,8.646,8.646H15.13a8.646,8.646,0,0,0,8.646-8.646V21.646A8.646,8.646,0,0,0,15.13,13Zm4.323,15.13a4.323,4.323,0,0,1-4.323,4.323H8.646A4.323,4.323,0,0,1,4.323,28.13V21.646a4.323,4.323,0,0,1,4.323-4.323H15.13a4.323,4.323,0,0,1,4.323,4.323Z" transform="translate(0 15.098)" fill="#13718d"/>
  <path id="Path_46026" data-name="Path 46026" d="M28.13,13H21.646A8.646,8.646,0,0,0,13,21.646V28.13a8.646,8.646,0,0,0,8.646,8.646H28.13a8.646,8.646,0,0,0,8.646-8.646V21.646A8.646,8.646,0,0,0,28.13,13Zm4.323,15.13a4.323,4.323,0,0,1-4.323,4.323H21.646a4.323,4.323,0,0,1-4.323-4.323V21.646a4.323,4.323,0,0,1,4.323-4.323H28.13a4.323,4.323,0,0,1,4.323,4.323Z" transform="translate(15.098 15.098)" fill="#13718d"/>
  <path id="Path_46027" data-name="Path 46027" d="M15.161,13.968h6.484v6.484a2.161,2.161,0,1,0,4.323,0V13.968h6.484a2.161,2.161,0,0,0,0-4.323H25.968V3.161a2.161,2.161,0,0,0-4.323,0V9.646H15.161a2.161,2.161,0,1,0,0,4.323Z" transform="translate(15.098 1.161)" fill="#13718d"/>
</svg>
