<svg xmlns="http://www.w3.org/2000/svg" width="52.874" height="52.874" viewBox="0 0 52.874 52.874">
  <path id="building" d="M15.13,30.26a2.161,2.161,0,0,1-2.161,2.161H10.807a2.161,2.161,0,0,1,0-4.323h2.161A2.161,2.161,0,0,1,15.13,30.26ZM23.775,28.1H21.614a2.161,2.161,0,0,0,0,4.323h2.161a2.161,2.161,0,1,0,0-4.323ZM12.968,36.744H10.807a2.161,2.161,0,0,0,0,4.323h2.161a2.161,2.161,0,0,0,0-4.323Zm10.807,0H21.614a2.161,2.161,0,0,0,0,4.323h2.161a2.161,2.161,0,1,0,0-4.323ZM12.968,10.807H10.807a2.161,2.161,0,0,0,0,4.323h2.161a2.161,2.161,0,0,0,0-4.323Zm10.807,0H21.614a2.161,2.161,0,0,0,0,4.323h2.161a2.161,2.161,0,1,0,0-4.323ZM12.968,19.453H10.807a2.161,2.161,0,1,0,0,4.323h2.161a2.161,2.161,0,1,0,0-4.323Zm10.807,0H21.614a2.161,2.161,0,0,0,0,4.323h2.161a2.161,2.161,0,1,0,0-4.323Zm28.1,2.161V41.067A10.82,10.82,0,0,1,41.067,51.874H10.807A10.82,10.82,0,0,1,0,41.067V10.807A10.82,10.82,0,0,1,10.807,0H23.775A10.82,10.82,0,0,1,34.582,10.807h6.484A10.82,10.82,0,0,1,51.874,21.614ZM10.807,47.551H30.26V10.807a6.484,6.484,0,0,0-6.484-6.484H10.807a6.484,6.484,0,0,0-6.484,6.484v30.26a6.484,6.484,0,0,0,6.484,6.484ZM47.551,21.614a6.484,6.484,0,0,0-6.484-6.484H34.582V47.551h6.484a6.484,6.484,0,0,0,6.484-6.484ZM41.067,28.1a2.161,2.161,0,1,0,2.161,2.161A2.161,2.161,0,0,0,41.067,28.1Zm0,8.646a2.161,2.161,0,1,0,2.161,2.161A2.161,2.161,0,0,0,41.067,36.744Zm0-17.291a2.161,2.161,0,1,0,2.161,2.161A2.161,2.161,0,0,0,41.067,19.453Z" transform="translate(0.5 0.5)" fill="#13718d" stroke="#13718d" stroke-width="1"/>
</svg>
