<svg xmlns="http://www.w3.org/2000/svg" width="52.792" height="52.789" viewBox="0 0 52.792 52.789">
  <path id="call-outgoing" d="M51.77,4.344v8.639a2.16,2.16,0,0,1-4.32,0V7.447L36,18.834a2.16,2.16,0,1,1-3.046-3.063L44.448,4.344H38.811a2.16,2.16,0,0,1,0-4.32H47.45A4.32,4.32,0,0,1,51.77,4.344ZM49.815,36.177a6.7,6.7,0,0,1,0,9.456L47.846,47.9C30.155,64.829-12.888,21.8,3.786,4.056L6.267,1.9a6.663,6.663,0,0,1,9.35.082c.065.067,4.067,5.268,4.067,5.268a6.7,6.7,0,0,1-.013,9.246l-2.5,3.147a27.6,27.6,0,0,0,14.97,15L35.3,32.123a6.7,6.7,0,0,1,9.244-.013s5.2,4,5.27,4.067Zm-2.97,3.14s-5.168-3.978-5.235-4.043a2.376,2.376,0,0,0-3.346,0c-.058.056-4.415,3.529-4.415,3.529a2.16,2.16,0,0,1-2.114.328A32.4,32.4,0,0,1,12.678,20.1a2.16,2.16,0,0,1,.313-2.149s3.471-4.356,3.529-4.415a2.376,2.376,0,0,0,0-3.346c-.065-.065-4.043-5.235-4.043-5.235a2.376,2.376,0,0,0-3.261.082L6.734,7.2C-5.456,21.845,31.85,57.084,44.686,44.954l1.97-2.268A2.419,2.419,0,0,0,46.846,39.317Z" transform="translate(0.522 0.478)" fill="#13718d" stroke="#13718d" stroke-width="1"/>
</svg>
