<svg xmlns="http://www.w3.org/2000/svg" width="54.42" height="51.749" viewBox="0 0 54.42 51.749">
  <path id="chart-set-theory" d="M45.279,30.727v-.164a17.939,17.939,0,1,0-35.878,0v.164A17.939,17.939,0,0,0,26.744,62.135q.3-.166.6-.345A17.939,17.939,0,1,0,45.876,31.071Q45.581,30.893,45.279,30.727ZM27.34,56.29a13.44,13.44,0,0,1-4.377-8.317,18,18,0,0,0,8.745,0,13.441,13.441,0,0,1-4.368,8.306Zm0-12.272a13.422,13.422,0,0,1-4.169-.661,13.475,13.475,0,0,1,4.169-7.115,13.474,13.474,0,0,1,4.169,7.115A13.422,13.422,0,0,1,27.34,44.017ZM19.1,41.192a13.475,13.475,0,0,1-4.9-7.714,13.454,13.454,0,0,1,9.223.325A17.957,17.957,0,0,0,19.1,41.192Zm12.154-7.4a13.454,13.454,0,0,1,9.223-.325,13.475,13.475,0,0,1-4.9,7.725A17.957,17.957,0,0,0,31.255,33.792ZM27.34,17.109A13.474,13.474,0,0,1,40.687,28.861,17.939,17.939,0,0,0,27.34,30.729a17.939,17.939,0,0,0-13.347-1.868A13.475,13.475,0,0,1,27.34,17.109ZM4.917,46.26a13.441,13.441,0,0,1,5.216-10.629A18.018,18.018,0,0,0,18.371,46.1v.164a17.881,17.881,0,0,0,5.054,12.468A13.454,13.454,0,0,1,4.917,46.26ZM36.31,59.714a13.393,13.393,0,0,1-5.054-.987A17.881,17.881,0,0,0,36.31,46.26V46.1A18.018,18.018,0,0,0,44.55,35.631,13.454,13.454,0,0,1,36.31,59.714Z" transform="translate(-0.13 -12.624)" fill="#13718d"/>
</svg>
