<svg xmlns="http://www.w3.org/2000/svg" width="61.917" height="52.874" viewBox="0 0 61.917 52.874">
  <path id="crown" d="M57.785,8.113a4.909,4.909,0,0,0-5.533,1.149l-6.564,6.849L34.047,3.965a4.928,4.928,0,0,0-7.178,0L15.229,16.112,8.665,9.262A4.923,4.923,0,0,0,3.134,8.115,5.3,5.3,0,0,0,0,13.008V41.045A12.991,12.991,0,0,0,12.691,54.288H48.226A12.991,12.991,0,0,0,60.917,41.045V13.008A5.3,5.3,0,0,0,57.785,8.113ZM55.84,41.045a7.785,7.785,0,0,1-7.615,7.946H12.691a7.785,7.785,0,0,1-7.615-7.946V13.008l8.358,8.722a2.464,2.464,0,0,0,3.589,0L30.458,7.71,43.893,21.729a2.464,2.464,0,0,0,3.589,0l8.358-8.722Z" transform="translate(0.5 -1.915)" fill="#13718d" stroke="#13718d" stroke-width="1"/>
</svg>
