<svg xmlns="http://www.w3.org/2000/svg" width="51.88" height="51.874" viewBox="0 0 51.88 51.874">
  <path id="chart-tree" d="M47.26,39.18a11.536,11.536,0,0,0-11.218-8.921H29.181V26.766a13.579,13.579,0,1,0-6.485,0v3.493H15.836A11.536,11.536,0,0,0,4.618,39.18a6.485,6.485,0,1,0,6.314,1.491,5.039,5.039,0,0,1,4.9-3.928H22.7V39.77a6.485,6.485,0,1,0,6.485,0V36.744h6.861a5.039,5.039,0,0,1,4.9,3.927A6.485,6.485,0,1,0,47.26,39.18Zm-28.415-25.6a7.094,7.094,0,1,1,7.094,7.094,7.094,7.094,0,0,1-7.094-7.094Z" transform="translate(0.001 -0.002)" fill="#13718d"/>
</svg>
