<svg xmlns="http://www.w3.org/2000/svg" width="52.998" height="52.998" viewBox="0 0 52.998 52.998">
  <path id="briefcase" d="M41.165,8.666H38.782A10.852,10.852,0,0,0,28.166,0H23.832A10.852,10.852,0,0,0,13.216,8.666H10.833A10.846,10.846,0,0,0,0,19.5V41.165A10.846,10.846,0,0,0,10.833,52H41.165A10.846,10.846,0,0,0,52,41.165V19.5A10.846,10.846,0,0,0,41.165,8.666ZM23.832,4.333h4.333a6.5,6.5,0,0,1,6.1,4.333H17.731A6.5,6.5,0,0,1,23.832,4.333ZM10.833,13H41.165a6.5,6.5,0,0,1,6.5,6.5V26H4.333V19.5a6.5,6.5,0,0,1,6.5-6.5ZM41.165,47.665H10.833a6.5,6.5,0,0,1-6.5-6.5V30.332h19.5V32.5a2.167,2.167,0,0,0,4.333,0V30.332h19.5V41.165A6.5,6.5,0,0,1,41.165,47.665Z" transform="translate(0.5 0.5)" fill="#13718d" stroke="#13718d" stroke-width="1"/>
</svg>
