<svg xmlns="http://www.w3.org/2000/svg" width="43.228" height="51.874" viewBox="0 0 43.228 51.874">
  <path id="document-signed" d="M33.669,33.605a3.242,3.242,0,0,1-.409,4.539,12.927,12.927,0,0,1-7.5,2.922,7.2,7.2,0,0,1-4.71-1.818,5.186,5.186,0,0,0-.51-.376,7.64,7.64,0,0,0-2.378,1.4,3.242,3.242,0,1,1-4.256-4.891,11.691,11.691,0,0,1,6.757-2.963,6.772,6.772,0,0,1,4.392,1.729c.553.432.584.432.7.432a6.545,6.545,0,0,0,3.352-1.418A3.242,3.242,0,0,1,33.669,33.605Zm-2.49-11.991H16.049a3.242,3.242,0,1,0,0,6.484h15.13a3.242,3.242,0,0,0,0-6.484Zm14.049-6.145V39.986A11.9,11.9,0,0,1,33.34,51.874H13.888A11.9,11.9,0,0,1,2,39.986v-28.1A11.9,11.9,0,0,1,13.888,0H29.759a11.81,11.81,0,0,1,8.406,3.482l3.581,3.581a11.81,11.81,0,0,1,3.482,8.406ZM38.744,39.986V15.13H34.421A4.323,4.323,0,0,1,30.1,10.807V6.484H13.888a5.4,5.4,0,0,0-5.4,5.4v28.1a5.4,5.4,0,0,0,5.4,5.4H33.34A5.4,5.4,0,0,0,38.744,39.986Z" transform="translate(-2)" fill="#13718d"/>
</svg>
