<svg xmlns="http://www.w3.org/2000/svg" width="53.119" height="52.998" viewBox="0 0 53.119 52.998">
  <path id="megaphone" d="M36.832,0a2.167,2.167,0,0,0-2.167,2.167c0,6.389-5.6,8.666-10.833,8.666H8.666A8.666,8.666,0,0,0,0,19.5v4.333a8.621,8.621,0,0,0,3.28,6.736L11.019,47.84A7,7,0,0,0,17.417,52a6.461,6.461,0,0,0,5.893-9.1L18.544,32.5h5.289c5.237,0,10.833,2.277,10.833,8.666a2.167,2.167,0,0,0,4.333,0v-39A2.167,2.167,0,0,0,36.832,0ZM19.363,44.673a2.13,2.13,0,0,1-1.946,2.992,2.669,2.669,0,0,1-2.44-1.59L8.894,32.5h4.883Zm15.3-13.041a16.733,16.733,0,0,0-10.833-3.467H8.666a4.333,4.333,0,0,1-4.333-4.333V19.5a4.333,4.333,0,0,1,4.333-4.333H23.832A16.733,16.733,0,0,0,34.665,11.71Zm17.116,1.846a2.167,2.167,0,0,1-2.908.971l-4.333-2.167A2.167,2.167,0,1,1,46.478,28.4l4.333,2.167a2.167,2.167,0,0,1,.971,2.9Zm-8.211-19.5a2.167,2.167,0,0,1,.971-2.908L48.874,8.9a2.167,2.167,0,0,1,1.937,3.878l-4.333,2.167A2.167,2.167,0,0,1,43.57,13.979Zm-.238,7.687A2.167,2.167,0,0,1,45.5,19.5h4.333a2.167,2.167,0,0,1,0,4.333H45.5A2.167,2.167,0,0,1,43.332,21.666Z" transform="translate(0.5 0.5)" fill="#13718d" stroke="#13718d" stroke-width="1"/>
</svg>
