<svg xmlns="http://www.w3.org/2000/svg" width="43.584" height="51.874" viewBox="0 0 43.584 51.874">
  <g id="Layer_2" data-name="Layer 2" transform="translate(-2.439 -1)">
    <path id="Path_46011" data-name="Path 46011" d="M44.657,32.7l-3.136-4.384V21.794A17.831,17.831,0,0,0,27.112,4.139V3.882a2.882,2.882,0,0,0-5.764,0V4.17a17.2,17.2,0,0,0-14.41,17v7.145L3.8,32.7A7.286,7.286,0,0,0,9.82,44.23h3.291a11.473,11.473,0,0,0,22.238,0h3.381A7.283,7.283,0,0,0,44.657,32.7ZM24.23,47.112a5.744,5.744,0,0,1-4.963-2.882h9.926A5.744,5.744,0,0,1,24.23,47.112Zm15.851-9.47a1.527,1.527,0,0,1-1.441.824H9.73a1.519,1.519,0,0,1-1.236-2.4l3.672-5.144a2.882,2.882,0,0,0,.536-1.674v-8.07a11.551,11.551,0,0,1,3.775-8.531,11.413,11.413,0,0,1,7.753-3c.38,0,.767.017,1.153.055a11.957,11.957,0,0,1,10.375,12.1v7.438a2.882,2.882,0,0,0,.536,1.675l3.671,5.144a1.478,1.478,0,0,1,.115,1.579Z" transform="translate(0 0)" fill="#13718d"/>
  </g>
</svg>
