<svg xmlns="http://www.w3.org/2000/svg" width="74.874" height="74.874" viewBox="0 0 74.874 74.874">
  <path id="building" d="M21.546,43.093a3.078,3.078,0,0,1-3.078,3.078H15.39a3.078,3.078,0,0,1,0-6.156h3.078A3.078,3.078,0,0,1,21.546,43.093Zm12.312-3.078H30.781a3.078,3.078,0,0,0,0,6.156h3.078a3.078,3.078,0,0,0,0-6.156ZM18.468,52.327H15.39a3.078,3.078,0,0,0,0,6.156h3.078a3.078,3.078,0,0,0,0-6.156Zm15.39,0H30.781a3.078,3.078,0,0,0,0,6.156h3.078a3.078,3.078,0,0,0,0-6.156ZM18.468,15.39H15.39a3.078,3.078,0,0,0,0,6.156h3.078a3.078,3.078,0,0,0,0-6.156Zm15.39,0H30.781a3.078,3.078,0,0,0,0,6.156h3.078a3.078,3.078,0,0,0,0-6.156ZM18.468,27.7H15.39a3.078,3.078,0,0,0,0,6.156h3.078a3.078,3.078,0,1,0,0-6.156Zm15.39,0H30.781a3.078,3.078,0,0,0,0,6.156h3.078a3.078,3.078,0,1,0,0-6.156Zm40.015,3.078v27.7a15.409,15.409,0,0,1-15.39,15.39H15.39A15.409,15.409,0,0,1,0,58.483V15.39A15.409,15.409,0,0,1,15.39,0H33.859a15.409,15.409,0,0,1,15.39,15.39h9.234a15.409,15.409,0,0,1,15.39,15.39ZM15.39,67.717h27.7V15.39a9.234,9.234,0,0,0-9.234-9.234H15.39A9.234,9.234,0,0,0,6.156,15.39V58.483a9.234,9.234,0,0,0,9.234,9.234ZM67.717,30.781a9.234,9.234,0,0,0-9.234-9.234H49.249V67.717h9.234a9.234,9.234,0,0,0,9.234-9.234Zm-9.234,9.234a3.078,3.078,0,1,0,3.078,3.078A3.078,3.078,0,0,0,58.483,40.015Zm0,12.312a3.078,3.078,0,1,0,3.078,3.078A3.078,3.078,0,0,0,58.483,52.327Zm0-24.625a3.078,3.078,0,1,0,3.078,3.078A3.078,3.078,0,0,0,58.483,27.7Z" transform="translate(0.5 0.5)" fill="#13718d" stroke="#13718d" stroke-width="1"/>
</svg>
