<svg xmlns="http://www.w3.org/2000/svg" width="60.126" height="58" viewBox="0 0 60.126 58">
  <g id="Group_2752" data-name="Group 2752" transform="translate(3 3)">
    <path id="Path_45957" data-name="Path 45957" d="M202.319,182.37a2.585,2.585,0,0,0-2.643-2.522h0a2.626,2.626,0,0,1-2.5-1.71,21.641,21.641,0,0,0-1.191-2.736,2.452,2.452,0,0,1,.491-2.906,2.461,2.461,0,0,0-.013-3.579l-4.244-4.049a2.711,2.711,0,0,0-3.725.013,2.708,2.708,0,0,1-3.021.492,23.546,23.546,0,0,0-2.857-1.125,2.539,2.539,0,0,1-1.8-2.39h0a2.585,2.585,0,0,0-2.643-2.522l-5.982.02a2.583,2.583,0,0,0-2.625,2.54h0a2.537,2.537,0,0,1-1.78,2.4,23.551,23.551,0,0,0-2.848,1.144,2.709,2.709,0,0,1-3.025-.471,2.711,2.711,0,0,0-3.725.013l-4.215,4.078a2.461,2.461,0,0,0,.013,3.579,2.452,2.452,0,0,1,.512,2.9,21.6,21.6,0,0,0-1.171,2.744,2.624,2.624,0,0,1-2.487,1.727h0a2.583,2.583,0,0,0-2.625,2.54l.021,5.747a2.585,2.585,0,0,0,2.643,2.522h0a2.625,2.625,0,0,1,2.5,1.71,21.606,21.606,0,0,0,1.191,2.736,2.452,2.452,0,0,1-.491,2.906,2.461,2.461,0,0,0,.013,3.579l4.244,4.049a2.711,2.711,0,0,0,3.725-.013,2.709,2.709,0,0,1,3.021-.492,23.532,23.532,0,0,0,2.857,1.125,2.539,2.539,0,0,1,1.8,2.39h0a2.585,2.585,0,0,0,2.643,2.522l5.982-.02a2.583,2.583,0,0,0,2.625-2.54h0a2.537,2.537,0,0,1,1.78-2.4,23.5,23.5,0,0,0,2.848-1.144,2.709,2.709,0,0,1,3.025.471,2.711,2.711,0,0,0,3.725-.013l4.215-4.078a2.461,2.461,0,0,0-.013-3.579,2.453,2.453,0,0,1-.512-2.9,21.571,21.571,0,0,0,1.171-2.744,2.624,2.624,0,0,1,2.487-1.727h0a2.583,2.583,0,0,0,2.625-2.54Zm-18.993,10.644a11.676,11.676,0,0,1-16.044.054,10.6,10.6,0,0,1-.056-15.413,11.675,11.675,0,0,1,16.044-.054A10.6,10.6,0,0,1,183.326,193.014Z" transform="translate(-148.214 -159.334)" fill="rgba(237,33,33,0)" stroke="#13718d" stroke-width="6"/>
  </g>
</svg>
