<svg xmlns="http://www.w3.org/2000/svg" width="74.874" height="74.874" viewBox="0 0 74.874 74.874">
  <path id="briefcase" d="M58.483,12.312H55.1A15.418,15.418,0,0,0,40.015,0H33.859A15.418,15.418,0,0,0,18.776,12.312H15.39A15.409,15.409,0,0,0,0,27.7V58.483a15.409,15.409,0,0,0,15.39,15.39H58.483a15.409,15.409,0,0,0,15.39-15.39V27.7a15.409,15.409,0,0,0-15.39-15.39ZM33.859,6.156h6.156a9.234,9.234,0,0,1,8.668,6.156H25.191A9.234,9.234,0,0,1,33.859,6.156ZM15.39,18.468H58.483A9.234,9.234,0,0,1,67.717,27.7v9.234H6.156V27.7a9.234,9.234,0,0,1,9.234-9.234ZM58.483,67.717H15.39a9.234,9.234,0,0,1-9.234-9.234V43.093h27.7v3.078a3.078,3.078,0,1,0,6.156,0V43.093h27.7v15.39A9.234,9.234,0,0,1,58.483,67.717Z" transform="translate(0.5 0.5)" fill="#13718d" stroke="#13718d" stroke-width="1"/>
</svg>
