<svg xmlns="http://www.w3.org/2000/svg" width="34.702" height="51.998" viewBox="0 0 34.702 51.998">
  <path id="dollar" d="M35.425,20.583a3.25,3.25,0,0,0,3.25-3.25V15.844A11.526,11.526,0,0,0,27.164,4.333H24.592V3.25a3.25,3.25,0,0,0-6.5,0V4.333H15.521a11.511,11.511,0,0,0-3.339,22.532l5.91,1.616V41.165H15.521a5.018,5.018,0,0,1-5.011-5.011V34.665a3.25,3.25,0,0,0-6.5,0v1.488A11.526,11.526,0,0,0,15.521,47.665h2.572v1.083a3.25,3.25,0,0,0,6.5,0V47.665h2.572A11.511,11.511,0,0,0,30.5,25.132l-5.91-1.612V10.833h2.572a5.018,5.018,0,0,1,5.011,5.011v1.488A3.25,3.25,0,0,0,35.425,20.583ZM28.67,31.37a5.013,5.013,0,0,1-1.517,9.8H24.592V30.256ZM18.093,21.742l-4.078-1.114a5.013,5.013,0,0,1,1.506-9.8h2.572Z" transform="translate(-3.992)" fill="#13718d"/>
</svg>
