<svg xmlns="http://www.w3.org/2000/svg" width="80.589" height="73.874" viewBox="0 0 80.589 73.874">
  <g id="Layer_2" data-name="Layer 2" transform="translate(-1 -3)">
    <path id="Path_45998" data-name="Path 45998" d="M21.909,36.817A17.909,17.909,0,1,0,4,18.909,17.909,17.909,0,0,0,21.909,36.817Zm0-26.863a8.954,8.954,0,1,1-8.954,8.954A8.954,8.954,0,0,1,21.909,9.954Z" transform="translate(10.431 2)" fill="#13718d"/>
    <path id="Path_45999" data-name="Path 45999" d="M32.34,11A31.376,31.376,0,0,0,1,42.34a4.477,4.477,0,0,0,4.477,4.477H59.2A4.477,4.477,0,0,0,63.68,42.34,31.376,31.376,0,0,0,32.34,11ZM10.4,37.863a22.386,22.386,0,0,1,43.876,0Z" transform="translate(0 30.056)" fill="#13718d"/>
    <path id="Path_46000" data-name="Path 46000" d="M35.386,15.954H30.909V11.477a4.477,4.477,0,0,0-8.954,0v4.477H17.477a4.477,4.477,0,0,0,0,8.954h4.477v4.477a4.477,4.477,0,0,0,8.954,0V24.909h4.477a4.477,4.477,0,1,0,0-8.954Z" transform="translate(41.726 16.148)" fill="#13718d"/>
  </g>
</svg>
