<svg xmlns="http://www.w3.org/2000/svg" width="154.453" height="226.905" viewBox="0 0 154.453 226.905">
  <g id="Group_2767" data-name="Group 2767" transform="translate(-1248.15 -422.382)">
    <g id="Group_2763" data-name="Group 2763" transform="translate(1248.15 618.378)">
      <path id="Path_46046" data-name="Path 46046" d="M1260.385,713.237h9.37v6.309a12.839,12.839,0,0,1-7.781,2.822c-5.06,0-10.5-3.479-10.5-11.124v-.072c0-5.464,3.92-11.124,10.467-11.124a11.01,11.01,0,0,1,7.558,2.873l.974.794,2.108-2.555-.967-.8a13.714,13.714,0,0,0-9.63-3.559,13.381,13.381,0,0,0-10.128,4.447,14.9,14.9,0,0,0-3.7,9.962v.072c0,8.438,5.674,14.336,13.795,14.336a15.962,15.962,0,0,0,10.727-4.252l.411-.375v-11.08h-12.69v3.328Z" transform="translate(-1248.15 -694.707)" fill="#fff"/>
      <path id="Path_46047" data-name="Path 46047" d="M1308.11,712.872c0,6.215-2.909,9.637-8.179,9.637-5.32,0-8.251-3.436-8.251-9.673V697.41h-3.32v15.426c0,8.092,4.317,12.921,11.542,12.921s11.542-4.829,11.542-12.921V697.41h-3.321v15.462Z" transform="translate(-1259.334 -694.876)" fill="#fff"/>
      <path id="Path_46048" data-name="Path 46048" d="M1320.83,724.384h3.631l3.631-7.63h14.6l3.631,7.63h3.667L1335.411,693.9Zm8.828-10.878,5.739-12.012,5.739,12.012Z" transform="translate(-1268.366 -693.9)" fill="#fff"/>
      <path id="Path_46049" data-name="Path 46049" d="M1385.831,705.863v-.072a7.737,7.737,0,0,0-2.187-5.616c-1.833-1.833-4.591-2.765-8.193-2.765H1363.8v27.943h3.32v-11.08h7.558l8.424,11.08h4.151l-8.691-11.412C1383.052,712.98,1385.831,709.963,1385.831,705.863Zm-18.7,5.169V700.658h8.251c2.144,0,7.125.505,7.125,5.168v.072c0,3.212-2.786,5.132-7.457,5.132h-7.919Z" transform="translate(-1280.318 -694.876)" fill="#fff"/>
      <path id="Path_46050" data-name="Path 46050" d="M1409.665,697.41h-9.435v27.943h9.435c8.561,0,14.769-5.861,14.769-13.939v-.072C1424.441,703.271,1418.226,697.41,1409.665,697.41Zm-6.107,3.248h6.078c6.655,0,11.485,4.512,11.485,10.727v.072c0,6.172-4.8,10.655-11.412,10.655h-6.15Z" transform="translate(-1290.451 -694.876)" fill="#fff"/>
    </g>
    <g id="Group_2764" data-name="Group 2764" transform="translate(1250.171 422.417)">
      <path id="Path_46051" data-name="Path 46051" d="M1316.5,471.305l-33.621-23.794L1253.01,426.37v99.68a65.188,65.188,0,0,0,25.525,51.728c12.6,9.666,25.149,19.331,37.969,29,12.416-9.586,25.092-19.172,37.724-28.759a65.167,65.167,0,0,0,25.763-51.916V426.37Q1348.233,448.838,1316.5,471.305Zm41.629,76.3a48.586,48.586,0,0,1-14.069,17.014q-2.977,2.263-5.962,4.526c-7.132,5.407-14.423,10.943-21.663,16.48-7.233-5.508-14.423-11.023-21.446-16.415q-3.108-2.382-6.215-4.771a48.39,48.39,0,0,1-18.941-38.381V458.875l5.212,3.689,31.747,22.464,9.716,6.879,9.716-6.879,31.747-22.464,5.212-3.689v45.686l-23.893-16.039-14.134,10.012,38.02,26.2V526.1A48.734,48.734,0,0,1,1358.126,547.605Z" transform="translate(-1251.523 -423.526)" fill="#fff"/>
      <path id="Path_46052" data-name="Path 46052" d="M1380.891,464.182h-.007V422.43L1315.924,468.4l-64.959-45.975v99.991h-.014v2.945h.022a66.625,66.625,0,0,0,26.088,52.479l6.186,4.75c10.359,7.948,21.064,16.169,31.79,24.261l.9.679.888-.686c9.7-7.493,19.721-15.1,29.48-22.507v.007l.5-.383c.592-.448,1.191-.9,1.783-1.357l5.948-4.512a67.011,67.011,0,0,0,26.348-53.085V467.127h.007v-2.945ZM1253.9,428.118l62.014,43.9,62.014-43.9v36.064h-13.874v-9.24l-48.14,34.071-48.14-34.071v67.486H1253.9v-94.31Zm102.33,117.741a47.1,47.1,0,0,1-13.643,16.494l-6.006,4.555-.015-.014-2.079,1.6c-6.129,4.649-12.409,9.42-18.638,14.177-6.915-5.27-13.816-10.568-20.5-15.7l-6.266-4.808a46.94,46.94,0,0,1-18.364-37.219V460.616l45.2,31.992,45.2-31.992v40.063l-22.435-15.051-16.675,11.817,39.117,26.954v.6a47.394,47.394,0,0,1-4.9,20.862Zm-40.323,57.972c-10.416-7.861-20.811-15.845-30.874-23.568l-6.186-4.75a63.678,63.678,0,0,1-24.94-50.147h13.874A49.84,49.84,0,0,0,1287.3,564.5l6.258,4.807c6.973,5.356,14.184,10.886,21.4,16.386l.9.679.9-.679c6.439-4.923,12.943-9.86,19.288-14.675l8.467,10.994C1335.038,589.185,1325.344,596.555,1315.909,603.831Zm62.029-78.826a64.043,64.043,0,0,1-25.178,50.739l-5.9,4.483-8.467-10.994,5.991-4.54a49.841,49.841,0,0,0,19.7-39.687v-2.144l-36.93-25.438,11.586-8.207,25.344,17.029V467.127h13.874v57.878Z" transform="translate(-1250.95 -422.43)" fill="#13718d"/>
    </g>
    <g id="Group_2765" data-name="Group 2765" transform="translate(1387.46 422.382)">
      <path id="Path_46053" data-name="Path 46053" d="M1448.712,437.525a7.574,7.574,0,1,1,5.356-12.928h0a7.572,7.572,0,0,1-5.356,12.928Zm0-14.3a6.739,6.739,0,1,0,4.757,1.978h0A6.69,6.69,0,0,0,1448.712,423.225Z" transform="translate(-1441.14 -422.382)" fill="#fff"/>
    </g>
    <g id="Group_2766" data-name="Group 2766" transform="translate(1389.739 424.558)">
      <path id="Path_46054" data-name="Path 46054" d="M1449.735,436.169a5.414,5.414,0,0,1-5.428-5.76,5.355,5.355,0,0,1,1.769-3.71,5.49,5.49,0,0,1,7.024-.065l-.52.657a4.706,4.706,0,0,0-5.948.036,4.459,4.459,0,0,0-1.487,3.126,4.6,4.6,0,0,0,7.695,3.681l.563.628A5.486,5.486,0,0,1,1449.735,436.169Z" transform="translate(-1444.297 -425.396)" fill="#fff"/>
    </g>
  </g>
</svg>
