<svg xmlns="http://www.w3.org/2000/svg" width="170.469" height="250.446" viewBox="0 0 170.469 250.446">
  <g id="Group_2762" data-name="Group 2762" transform="translate(-716.64 -422.382)">
    <g id="Group_2758" data-name="Group 2758" transform="translate(716.64 638.712)">
      <path id="Path_46037" data-name="Path 46037" d="M730.145,714.942h10.342v6.964a14.171,14.171,0,0,1-8.589,3.115c-5.585,0-11.593-3.84-11.593-12.278v-.08c0-6.031,4.326-12.278,11.553-12.278a12.152,12.152,0,0,1,8.342,3.171l1.076.876,2.326-2.82-1.068-.884a15.137,15.137,0,0,0-10.629-3.928,14.77,14.77,0,0,0-11.178,4.908A16.448,16.448,0,0,0,716.64,712.7v.08c0,9.314,6.262,15.823,15.226,15.823a17.618,17.618,0,0,0,11.84-4.693l.454-.414v-12.23H730.153v3.673Z" transform="translate(-716.64 -694.49)" fill="#13718d"/>
      <path id="Path_46038" data-name="Path 46038" d="M778.639,714.476c0,6.86-3.211,10.636-9.027,10.636-5.872,0-9.107-3.792-9.107-10.676V697.41H756.84v17.026c0,8.931,4.764,14.262,12.74,14.262s12.74-5.33,12.74-14.262V697.41h-3.665v17.066Z" transform="translate(-724.811 -694.613)" fill="#13718d"/>
      <path id="Path_46039" data-name="Path 46039" d="M789.31,727.546h4.008l4.008-8.422h16.118l4.008,8.422H821.5L805.4,693.9Zm9.752-12.007,6.334-13.258,6.334,13.258Z" transform="translate(-731.411 -693.9)" fill="#13718d"/>
      <path id="Path_46040" data-name="Path 46040" d="M856.609,706.74v-.08a8.54,8.54,0,0,0-2.414-6.2c-2.024-2.024-5.067-3.052-9.043-3.052H832.3v30.842h3.665v-12.23h8.342l9.3,12.23h4.581l-9.593-12.6C853.541,714.6,856.609,711.265,856.609,706.74Zm-20.644,5.7V701h9.107c2.366,0,7.864.558,7.864,5.7v.08c0,3.545-3.075,5.665-8.23,5.665h-8.74Z" transform="translate(-740.149 -694.613)" fill="#13718d"/>
      <path id="Path_46041" data-name="Path 46041" d="M879.133,697.41H868.72v30.842h10.413c9.449,0,16.3-6.47,16.3-15.385v-.08C895.443,703.88,888.583,697.41,879.133,697.41ZM872.393,701H879.1c7.346,0,12.676,4.98,12.676,11.84v.08c0,6.812-5.3,11.76-12.6,11.76h-6.788V701Z" transform="translate(-747.551 -694.613)" fill="#13718d"/>
    </g>
    <g id="Group_2759" data-name="Group 2759" transform="translate(718.871 422.42)">
      <path id="Path_46042" data-name="Path 46042" d="M791.573,475.967q-35.041-24.8-70.073-49.6V536.392a71.951,71.951,0,0,0,28.173,57.095c13.911,10.668,27.759,21.337,41.909,32.005,13.7-10.581,27.695-21.161,41.638-31.742a71.928,71.928,0,0,0,28.436-57.3V426.37Q826.6,451.169,791.573,475.967Zm45.948,84.216a53.627,53.627,0,0,1-15.528,18.779q-3.287,2.5-6.581,5c-7.872,5.968-15.919,12.079-23.91,18.19-7.983-6.079-15.919-12.166-23.671-18.118q-3.43-2.629-6.86-5.266A53.41,53.41,0,0,1,740.064,536.4V462.247l5.752,4.071,35.041,24.795,10.724,7.593,10.724-7.593,35.041-24.795,5.752-4.071v50.426l-26.388-17.7-15.6,11.051,41.964,28.914v1.514A53.663,53.663,0,0,1,837.521,560.183Z" transform="translate(-719.859 -423.231)" fill="#13718d"/>
      <path id="Path_46043" data-name="Path 46043" d="M862.861,468.514h-.008V422.43l-71.7,50.744-71.7-50.744V532.795h-.016v3.251h.024a73.538,73.538,0,0,0,28.794,57.923l6.828,5.243c11.433,8.772,23.249,17.847,35.089,26.778l.988.749.98-.757c10.708-8.27,21.767-16.668,32.539-24.842v.008l.55-.422c.653-.494,1.315-1,1.968-1.5l6.565-4.98a73.963,73.963,0,0,0,29.081-58.592V471.764h.008v-3.251ZM722.7,428.708l68.448,48.45,68.448-48.45v39.805H844.281v-10.2l-53.135,37.606-53.135-37.606V532.8H722.7V428.708ZM835.645,558.665a51.987,51.987,0,0,1-15.058,18.206l-6.629,5.027-.016-.016-2.295,1.769c-6.764,5.131-13.7,10.4-20.572,15.648-7.633-5.816-15.25-11.664-22.628-17.329l-6.916-5.306a51.811,51.811,0,0,1-20.269-41.08V464.578l49.892,35.312,49.892-35.312V508.8l-24.763-16.612-18.4,13.043,43.175,29.75v.661a52.307,52.307,0,0,1-5.41,23.026Zm-44.506,63.986c-11.5-8.677-22.97-17.489-34.077-26.014l-6.828-5.243a70.284,70.284,0,0,1-27.527-55.35H738.02a55.011,55.011,0,0,0,21.536,43.2l6.908,5.306c7.7,5.912,15.656,12.015,23.623,18.086l.988.749.988-.749c7.107-5.434,14.286-10.884,21.289-16.2l9.346,12.134C812.252,606.485,801.544,614.62,791.139,622.651Zm68.464-87a70.687,70.687,0,0,1-27.79,56L825.3,596.6l-9.346-12.134,6.613-5.011a55.012,55.012,0,0,0,21.743-43.8v-2.366L803.544,505.2l12.788-9.059,27.974,18.8V471.764h15.313v63.883Z" transform="translate(-719.44 -422.43)" fill="#262262"/>
    </g>
    <g id="Group_2760" data-name="Group 2760" transform="translate(870.395 422.382)">
      <path id="Path_46044" data-name="Path 46044" d="M917.978,439.1a8.359,8.359,0,1,1,5.912-14.27h0a8.358,8.358,0,0,1-5.912,14.27Zm0-15.783a7.438,7.438,0,1,0,5.251,2.183h0A7.357,7.357,0,0,0,917.978,423.313Z" transform="translate(-909.62 -422.382)" fill="#13718d"/>
    </g>
    <g id="Group_2761" data-name="Group 2761" transform="translate(872.91 424.783)">
      <path id="Path_46045" data-name="Path 46045" d="M918.779,437.287a5.976,5.976,0,0,1-5.992-6.358,5.911,5.911,0,0,1,1.952-4.1,6.059,6.059,0,0,1,7.752-.072l-.574.725a5.194,5.194,0,0,0-6.565.04,4.922,4.922,0,0,0-1.641,3.45,5.077,5.077,0,0,0,8.493,4.063l.621.693A6.026,6.026,0,0,1,918.779,437.287Z" transform="translate(-912.777 -425.396)" fill="#13718d"/>
    </g>
  </g>
</svg>
