<svg xmlns="http://www.w3.org/2000/svg" width="183.364" height="220.564" viewBox="0 0 183.364 220.564">
  <g id="Objects" transform="translate(1.5 1.5)">
    <g id="Group_2" data-name="Group 2" transform="translate(0 0)">
      <g id="Group_1" data-name="Group 1" transform="translate(19.62 142.791)">
        <text id="XMLID_184_" transform="translate(0 53)" fill="#442204" font-size="67" font-family="Cookie-Regular, Cookie"><tspan x="0" y="0">Pickup</tspan></text>
        <g id="XMLID_179_" transform="translate(13.488 63.274)" opacity="0.7">
          <text id="FOOD_DRINK" data-name="FOOD &amp; DRINK" transform="translate(0 10)" fill="#442204" font-size="13" font-family="Helvetica"><tspan x="0" y="0">FOOD &amp; DRINK</tspan></text>
        </g>
      </g>
      <g id="XMLID_232_">
        <g id="XMLID_194_" transform="translate(0 6.257)">
          <path id="XMLID_214_" d="M164.511,139.473c-11.438,5.542-17.493,24.706-17.493,24.706l14.941,3.6S154.469,150.149,164.511,139.473Z" transform="translate(-21.055 -38.87)" fill="#ffd13e"/>
          <path id="XMLID_205_" d="M83.295,139.473c9.825,5.613,17.407,27.739,17.407,27.739l-14.426,2.232S93.12,146.91,83.295,139.473Z" transform="translate(-46.392 -38.87)" fill="#ffd13e"/>
          <g id="XMLID_191_" transform="translate(1.092)">
            <path id="XMLID_204_" d="M147.883,88.412c.177-.1.362-.189.542-.287q-.658-1.291-1.406-2.523C147.338,86.525,147.633,87.459,147.883,88.412Z" transform="translate(-22.146 -60.289)" fill="#ffd13e"/>
            <path id="XMLID_207_" d="M165.673,84.249c-6.208,0-13.685,2.552-18.82,5.36a40.544,40.544,0,0,1,3.234,7.753c5.261-2.992,12.661-5.72,19.086-5.72A36.593,36.593,0,0,1,200.387,109.5C195.251,94.774,181.65,84.249,165.673,84.249Z" transform="translate(-22.212 -60.828)" fill="#ffd13e"/>
            <path id="XMLID_208_" d="M147.855,67.491c-16.989,0-31.261,11.92-35.553,28.123a35.722,35.722,0,0,0-17.723-4.7c-20.383,0-36.907,17.129-36.907,38.261a39.091,39.091,0,0,0,5.692,20.4,39.456,39.456,0,0,1-2.191-13.009c0-21.132,16.521-38.261,36.906-38.261a35.709,35.709,0,0,1,17.725,4.7c4.289-16.2,18.56-28.123,35.553-28.123a36.518,36.518,0,0,1,31.189,17.922C177.424,78.054,163.849,67.491,147.855,67.491Z" transform="translate(-57.672 -67.491)" fill="#ffd13e"/>
          </g>
          <path id="XMLID_23_" d="M195.835,195.278c-4.327-18.109,4.513-27.371,4.513-27.371,20.381,0,36.907-17.129,36.907-38.261s-16.524-38.261-36.907-38.261a35.715,35.715,0,0,0-17.723,4.7c-4.291-16.2-18.562-28.123-35.553-28.123s-31.262,11.92-35.554,28.123a35.715,35.715,0,0,0-17.723-4.7c-20.381,0-36.9,17.131-36.9,38.261s16.523,38.261,36.9,38.261c0,0,8.56,5.119,4.161,27.739" transform="translate(-56.891 -67.303)" fill="none" stroke="#442204" stroke-linecap="round" stroke-linejoin="round" stroke-miterlimit="10" stroke-width="3"/>
          <g id="XMLID_189_" transform="translate(14.113 37.912)">
            <g id="XMLID_182_" transform="translate(2.312)">
              <g id="XMLID_187_" transform="translate(0 0.014)">
                <path id="XMLID_210_" d="M163.274,190.706l-1.832-16.741-1.069.171-1.5-34.207s11.694-12.354,11.551-22.236S167.108,95.127,158,94.644s-11.486,9.407-13.725,17.944,1.966,18.175,6.138,22.345,4.728,8.02,4.728,8.02l-1.82,38.356-.744,8.045-23.521-.524-.08-2.236.4.41-3.138-32.926a22.539,22.539,0,0,1,5.4-10.825c4.408-4.591,3.384-7.8,2.833-12.78s-1.923-30.546-1.923-30.546-1.628-1.634-2.2,0,.457,11.357-1.339,13.532-2.048-14.569-4.222-14.257-1.27,21.933-2.256,22.829-3.5-22.2-5.677-22.1c0,0-3.215,32.265-2.562,35.7s6.672,11.47,8.073,16.59c.957,3.5.228,19.335-.33,29l-.282.025-1,8.778s-46.924,3.065-52.114,6.808c0,0,70.594-7.168,125.935-2.657Z" transform="translate(-68.643 -94.627)" fill="#ffd13e"/>
                <path id="XMLID_211_" d="M158.751,165.85l17.95,1.986C170.991,167.007,164.966,166.356,158.751,165.85Z" transform="translate(-32.814 -66.307)" fill="#ffbf8a"/>
              </g>
              <path id="XMLID_201_" d="M140.986,190.023c-.073-3.124-3.166-45.413-3.166-45.413s-.123-4.34,2.435-6.546c2.818-2.432,8.576-10.614,8.576-21.128,0-10.316-4.217-22.319-13.044-22.319s-13.044,12-13.044,22.319c0,10.514,5.758,18.7,8.576,21.128,2.558,2.207,2.433,6.546,2.433,6.546s-1.9,41.838-1.978,44.963" transform="translate(-47.132 -94.617)" fill="none" stroke="#442204" stroke-linecap="round" stroke-linejoin="round" stroke-miterlimit="10" stroke-width="3"/>
              <path id="XMLID_183_" d="M132.581,131.851s13.666-11.076,7.3-28.211" transform="translate(-43.22 -91.029)" fill="none" stroke="#442204" stroke-linecap="round" stroke-linejoin="round" stroke-miterlimit="10" stroke-width="3"/>
            </g>
            <g id="XMLID_190_" transform="translate(47.957 3.119)">
              <path id="XMLID_198_" d="M112.722,188.47s-2.731-33.227-2.864-35.277.84-4.7,2.79-7.219c1.927-2.486,5.363-6.974,5.444-10.946,0-.094,0-.187-.006-.281l-2.034-37.9" transform="translate(-97.905 -96.849)" fill="none" stroke="#442204" stroke-linecap="round" stroke-linejoin="round" stroke-miterlimit="10" stroke-width="3"/>
              <path id="XMLID_196_" d="M103.342,96.849l-2.034,37.9c-.006.094-.008.187-.006.281.08,3.972,3.516,8.46,5.444,10.946,1.947,2.514,2.921,5.17,2.79,7.219s-.976,35.277-.976,35.277" transform="translate(-101.302 -96.849)" fill="none" stroke="#442204" stroke-linecap="round" stroke-linejoin="round" stroke-miterlimit="10" stroke-width="3"/>
              <g id="XMLID_192_" transform="translate(7.259 0.341)">
                <line id="XMLID_195_" y1="38.604" fill="none" stroke="#442204" stroke-linecap="round" stroke-linejoin="round" stroke-miterlimit="10" stroke-width="3"/>
                <line id="XMLID_193_" y1="38.604" transform="translate(5.667)" fill="none" stroke="#442204" stroke-linecap="round" stroke-linejoin="round" stroke-miterlimit="10" stroke-width="3"/>
              </g>
            </g>
            <path id="XMLID_212_" d="M135.8,162.88a412.588,412.588,0,0,1,55.966,7.3" transform="translate(-39.63 -67.474)" fill="none" stroke="#442204" stroke-linecap="round" stroke-linejoin="round" stroke-miterlimit="10" stroke-width="3"/>
            <path id="XMLID_199_" d="M112.442,162.621c3.829-.14,7.739-.217,11.7-.217s7.88.077,11.734.217" transform="translate(-48.916 -67.664)" fill="none" stroke="#442204" stroke-linecap="round" stroke-linejoin="round" stroke-miterlimit="10" stroke-width="3"/>
            <path id="XMLID_188_" d="M66.989,170.2a378.243,378.243,0,0,1,55.216-7.35" transform="translate(-66.989 -67.488)" fill="none" stroke="#442204" stroke-linecap="round" stroke-linejoin="round" stroke-miterlimit="10" stroke-width="3"/>
          </g>
          <path id="XMLID_197_" d="M129.361,74.4c-19.283,7.143-23.034,25.853-23.034,25.853S91.16,92.818,81.5,96.268" transform="translate(-47.104 -64.742)" fill="none" stroke="#442204" stroke-linecap="round" stroke-linejoin="round" stroke-miterlimit="10" stroke-width="3"/>
          <path id="XMLID_200_" d="M98.114,159.32s-16.007,2.654-27.379,7.076" transform="translate(-51.386 -30.978)" fill="none" stroke="#442204" stroke-linecap="round" stroke-linejoin="round" stroke-miterlimit="10" stroke-width="3"/>
          <path id="XMLID_202_" d="M149.794,158.316s16.567,2.312,26.956,6.379" transform="translate(-19.951 -31.377)" fill="none" stroke="#442204" stroke-linecap="round" stroke-linejoin="round" stroke-miterlimit="10" stroke-width="3"/>
          <line id="XMLID_209_" y1="1.63" x2="9.057" transform="translate(50.729 125.309)" fill="none" stroke="#442204" stroke-linecap="round" stroke-linejoin="round" stroke-miterlimit="10" stroke-width="3"/>
          <path id="XMLID_222_" d="M188.288,119.359s-5.642,20.131-32.17,20.89" transform="translate(-17.437 -46.867)" fill="none" stroke="#442204" stroke-linecap="round" stroke-linejoin="round" stroke-miterlimit="10" stroke-width="3"/>
        </g>
        <path id="XMLID_120_" d="M108.271,66.143a3.129,3.129,0,1,1-3.129-3.129A3.129,3.129,0,0,1,108.271,66.143Z" transform="translate(-38.949 -63.014)" fill="none" stroke="#442204" stroke-linecap="round" stroke-linejoin="round" stroke-miterlimit="10" stroke-width="3"/>
        <path id="XMLID_233_" d="M183.153,144.5a3.129,3.129,0,1,1-3.128-3.128A3.127,3.127,0,0,1,183.153,144.5Z" transform="translate(-9.175 -31.859)" fill="none" stroke="#442204" stroke-linecap="round" stroke-linejoin="round" stroke-miterlimit="10" stroke-width="3"/>
        <path id="XMLID_234_" d="M68.768,159.206a3.127,3.127,0,1,1-3.126-3.129A3.125,3.125,0,0,1,68.768,159.206Z" transform="translate(-54.655 -26.01)" fill="none" stroke="#442204" stroke-linecap="round" stroke-linejoin="round" stroke-miterlimit="10" stroke-width="3"/>
      </g>
    </g>
  </g>
</svg>
